<mxfile host="Electron" agent="Mozilla/5.0 (Macintosh; Intel Mac OS X 10_15_7) AppleWebKit/537.36 (KHTML, like Gecko) draw.io/26.2.2 Chrome/134.0.6998.178 Electron/35.1.2 Safari/537.36" version="26.2.2">
  <diagram name="Page-1" id="2ncLPlmVgekpSeyfx8_P">
    <mxGraphModel dx="1252" dy="790" grid="1" gridSize="10" guides="1" tooltips="1" connect="1" arrows="1" fold="1" page="1" pageScale="1" pageWidth="1100" pageHeight="850" math="0" shadow="0">
      <root>
        <mxCell id="0" />
        <mxCell id="1" parent="0" />
        <mxCell id="0XxruhdIlYtL2P7Ihqz--51" value="" style="group;labelPosition=left;verticalLabelPosition=middle;align=right;verticalAlign=middle;" parent="1" vertex="1" connectable="0">
          <mxGeometry x="50" y="350" width="485.07000000000005" height="466" as="geometry" />
        </mxCell>
        <mxCell id="0XxruhdIlYtL2P7Ihqz--4" value="" style="edgeStyle=orthogonalEdgeStyle;rounded=0;orthogonalLoop=1;jettySize=auto;html=1;" parent="0XxruhdIlYtL2P7Ihqz--51" source="0XxruhdIlYtL2P7Ihqz--2" target="0XxruhdIlYtL2P7Ihqz--8" edge="1">
          <mxGeometry relative="1" as="geometry">
            <mxPoint x="91.57000000000005" y="228.5" as="targetPoint" />
          </mxGeometry>
        </mxCell>
        <mxCell id="0XxruhdIlYtL2P7Ihqz--15" value="" style="edgeStyle=orthogonalEdgeStyle;rounded=0;orthogonalLoop=1;jettySize=auto;html=1;" parent="0XxruhdIlYtL2P7Ihqz--51" source="0XxruhdIlYtL2P7Ihqz--6" target="0XxruhdIlYtL2P7Ihqz--13" edge="1">
          <mxGeometry relative="1" as="geometry" />
        </mxCell>
        <mxCell id="0XxruhdIlYtL2P7Ihqz--20" value="enqueue client connections" style="edgeLabel;html=1;align=center;verticalAlign=middle;resizable=0;points=[];" parent="0XxruhdIlYtL2P7Ihqz--15" vertex="1" connectable="0">
          <mxGeometry x="-0.2085" y="3" relative="1" as="geometry">
            <mxPoint x="-3" y="3" as="offset" />
          </mxGeometry>
        </mxCell>
        <mxCell id="0XxruhdIlYtL2P7Ihqz--6" value="TCP socket (blocking main thread)" style="rounded=1;arcSize=10;strokeColor=none;fillColor=#DBDBDB;gradientColor=none;" parent="0XxruhdIlYtL2P7Ihqz--51" vertex="1">
          <mxGeometry x="265.07000000000005" y="24" width="210" height="30" as="geometry" />
        </mxCell>
        <mxCell id="0XxruhdIlYtL2P7Ihqz--14" value="" style="edgeStyle=orthogonalEdgeStyle;rounded=0;orthogonalLoop=1;jettySize=auto;html=1;" parent="0XxruhdIlYtL2P7Ihqz--51" source="0XxruhdIlYtL2P7Ihqz--8" target="0XxruhdIlYtL2P7Ihqz--6" edge="1">
          <mxGeometry relative="1" as="geometry" />
        </mxCell>
        <mxCell id="0XxruhdIlYtL2P7Ihqz--35" value="accept client connections" style="edgeLabel;html=1;align=center;verticalAlign=middle;resizable=0;points=[];" parent="0XxruhdIlYtL2P7Ihqz--14" vertex="1" connectable="0">
          <mxGeometry x="-0.0248" y="-1" relative="1" as="geometry">
            <mxPoint y="-1" as="offset" />
          </mxGeometry>
        </mxCell>
        <mxCell id="0XxruhdIlYtL2P7Ihqz--8" value="" style="sketch=0;outlineConnect=0;fontColor=#232F3E;gradientColor=none;fillColor=#232F3D;strokeColor=none;dashed=0;verticalLabelPosition=bottom;verticalAlign=top;align=center;html=1;fontSize=12;fontStyle=0;aspect=fixed;pointerEvents=1;shape=mxgraph.aws4.traditional_server;" parent="0XxruhdIlYtL2P7Ihqz--51" vertex="1">
          <mxGeometry x="61.57000000000005" width="45" height="78" as="geometry" />
        </mxCell>
        <mxCell id="0XxruhdIlYtL2P7Ihqz--16" value="" style="edgeStyle=orthogonalEdgeStyle;rounded=0;orthogonalLoop=1;jettySize=auto;html=1;" parent="0XxruhdIlYtL2P7Ihqz--51" source="0XxruhdIlYtL2P7Ihqz--13" target="0XxruhdIlYtL2P7Ihqz--9" edge="1">
          <mxGeometry relative="1" as="geometry" />
        </mxCell>
        <mxCell id="0XxruhdIlYtL2P7Ihqz--21" value="dequeue client connections" style="edgeLabel;html=1;align=center;verticalAlign=middle;resizable=0;points=[];" parent="0XxruhdIlYtL2P7Ihqz--16" vertex="1" connectable="0">
          <mxGeometry x="-0.1887" relative="1" as="geometry">
            <mxPoint x="-1" as="offset" />
          </mxGeometry>
        </mxCell>
        <mxCell id="0XxruhdIlYtL2P7Ihqz--13" value="blocking queue" style="outlineConnect=0;dashed=0;verticalLabelPosition=middle;verticalAlign=middle;align=left;html=1;shape=mxgraph.aws3.queue;fillColor=#D9A741;gradientColor=none;labelPosition=right;" parent="0XxruhdIlYtL2P7Ihqz--51" vertex="1">
          <mxGeometry x="321.57000000000005" y="145.5" width="97" height="38" as="geometry" />
        </mxCell>
        <mxCell id="0XxruhdIlYtL2P7Ihqz--19" value="" style="edgeStyle=orthogonalEdgeStyle;rounded=0;orthogonalLoop=1;jettySize=auto;html=1;" parent="0XxruhdIlYtL2P7Ihqz--51" source="0XxruhdIlYtL2P7Ihqz--17" target="0XxruhdIlYtL2P7Ihqz--8" edge="1">
          <mxGeometry relative="1" as="geometry">
            <mxPoint x="-66.59981182046215" y="238.5" as="targetPoint" />
          </mxGeometry>
        </mxCell>
        <mxCell id="0XxruhdIlYtL2P7Ihqz--17" value="client #1" style="sketch=0;outlineConnect=0;fontColor=#232F3E;gradientColor=none;fillColor=#232F3D;strokeColor=none;dashed=0;verticalLabelPosition=middle;verticalAlign=middle;align=left;html=1;fontSize=12;fontStyle=0;aspect=fixed;pointerEvents=1;shape=mxgraph.aws4.client;labelPosition=right;" parent="0XxruhdIlYtL2P7Ihqz--51" vertex="1">
          <mxGeometry x="106.57000000000005" y="123.5" width="61.57" height="60" as="geometry" />
        </mxCell>
        <mxCell id="0XxruhdIlYtL2P7Ihqz--46" value="" style="group" parent="0XxruhdIlYtL2P7Ihqz--51" vertex="1" connectable="0">
          <mxGeometry x="255.07000000000005" y="240" width="230" height="186" as="geometry" />
        </mxCell>
        <mxCell id="0XxruhdIlYtL2P7Ihqz--9" value="Session manager (dedicated thread)" style="rounded=1;arcSize=10;strokeColor=none;fillColor=#DBDBDB;gradientColor=none;labelPosition=center;verticalLabelPosition=bottom;align=center;verticalAlign=top;" parent="0XxruhdIlYtL2P7Ihqz--46" vertex="1">
          <mxGeometry width="230" height="186" as="geometry" />
        </mxCell>
        <mxCell id="0XxruhdIlYtL2P7Ihqz--36" value="Worker thread pool" style="rounded=1;arcSize=10;strokeColor=none;fillColor=#E6E6E6;gradientColor=none;labelPosition=center;verticalLabelPosition=bottom;align=center;verticalAlign=top;" parent="0XxruhdIlYtL2P7Ihqz--46" vertex="1">
          <mxGeometry x="8.5" y="19.06" width="211.5" height="136.94" as="geometry" />
        </mxCell>
        <mxCell id="0XxruhdIlYtL2P7Ihqz--44" value="" style="group" parent="0XxruhdIlYtL2P7Ihqz--46" vertex="1" connectable="0">
          <mxGeometry x="20" y="26" width="130" height="100" as="geometry" />
        </mxCell>
        <mxCell id="0XxruhdIlYtL2P7Ihqz--43" value="Worker thread #1" style="rounded=1;arcSize=10;strokeColor=none;fillColor=#999999;gradientColor=none;labelPosition=center;verticalLabelPosition=bottom;align=center;verticalAlign=top;" parent="0XxruhdIlYtL2P7Ihqz--44" vertex="1">
          <mxGeometry width="130" height="100" as="geometry" />
        </mxCell>
        <mxCell id="0XxruhdIlYtL2P7Ihqz--22" value="Session #1" style="rounded=1;arcSize=10;strokeColor=none;fillColor=#DBDBDB;gradientColor=none;labelPosition=center;verticalLabelPosition=bottom;align=center;verticalAlign=top;" parent="0XxruhdIlYtL2P7Ihqz--44" vertex="1">
          <mxGeometry x="6.5" y="12" width="110" height="60" as="geometry" />
        </mxCell>
        <mxCell id="0XxruhdIlYtL2P7Ihqz--30" value="client #2 thread" style="rounded=1;arcSize=10;strokeColor=none;fillColor=#CCCCCC;gradientColor=none;labelPosition=center;verticalLabelPosition=middle;align=center;verticalAlign=middle;" parent="0XxruhdIlYtL2P7Ihqz--44" vertex="1">
          <mxGeometry x="18.3" y="44" width="91.7" height="20" as="geometry" />
        </mxCell>
        <mxCell id="0XxruhdIlYtL2P7Ihqz--31" value="client #1 thread" style="rounded=1;arcSize=10;strokeColor=none;fillColor=#CCCCCC;gradientColor=none;labelPosition=center;verticalLabelPosition=middle;align=center;verticalAlign=middle;" parent="0XxruhdIlYtL2P7Ihqz--44" vertex="1">
          <mxGeometry x="18.3" y="20" width="91.7" height="20" as="geometry" />
        </mxCell>
        <mxCell id="0XxruhdIlYtL2P7Ihqz--47" value="" style="edgeStyle=orthogonalEdgeStyle;rounded=0;orthogonalLoop=1;jettySize=auto;html=1;startArrow=classic;startFill=1;" parent="0XxruhdIlYtL2P7Ihqz--51" source="0XxruhdIlYtL2P7Ihqz--30" target="0XxruhdIlYtL2P7Ihqz--2" edge="1">
          <mxGeometry relative="1" as="geometry">
            <mxPoint x="196.5700000000005" y="400" as="sourcePoint" />
            <mxPoint x="85.55571428571454" y="230" as="targetPoint" />
          </mxGeometry>
        </mxCell>
        <mxCell id="0XxruhdIlYtL2P7Ihqz--49" value="communicate" style="edgeLabel;html=1;align=center;verticalAlign=middle;resizable=0;points=[];" parent="0XxruhdIlYtL2P7Ihqz--47" vertex="1" connectable="0">
          <mxGeometry x="0.6698" y="2" relative="1" as="geometry">
            <mxPoint as="offset" />
          </mxGeometry>
        </mxCell>
        <mxCell id="0XxruhdIlYtL2P7Ihqz--2" value="client #2" style="sketch=0;outlineConnect=0;fontColor=#232F3E;gradientColor=none;fillColor=#232F3D;strokeColor=none;dashed=0;verticalLabelPosition=middle;verticalAlign=middle;align=right;html=1;fontSize=12;fontStyle=0;aspect=fixed;pointerEvents=1;shape=mxgraph.aws4.client;labelPosition=left;" parent="0XxruhdIlYtL2P7Ihqz--51" vertex="1">
          <mxGeometry y="123.5" width="61.57" height="60" as="geometry" />
        </mxCell>
        <mxCell id="0XxruhdIlYtL2P7Ihqz--32" value="" style="edgeStyle=orthogonalEdgeStyle;rounded=0;orthogonalLoop=1;jettySize=auto;html=1;startArrow=classic;startFill=1;" parent="0XxruhdIlYtL2P7Ihqz--51" source="0XxruhdIlYtL2P7Ihqz--31" target="0XxruhdIlYtL2P7Ihqz--17" edge="1">
          <mxGeometry relative="1" as="geometry">
            <mxPoint x="-185.42999999999995" y="300" as="sourcePoint" />
            <mxPoint x="-177.42999999999995" y="229" as="targetPoint" />
          </mxGeometry>
        </mxCell>
        <mxCell id="0XxruhdIlYtL2P7Ihqz--50" value="communicate" style="edgeLabel;html=1;align=center;verticalAlign=middle;resizable=0;points=[];" parent="0XxruhdIlYtL2P7Ihqz--32" vertex="1" connectable="0">
          <mxGeometry x="0.5346" y="1" relative="1" as="geometry">
            <mxPoint as="offset" />
          </mxGeometry>
        </mxCell>
        <mxCell id="Ft3LX77Qiu8mn2sCMVQa-9" value="" style="group" vertex="1" connectable="0" parent="1">
          <mxGeometry x="190" y="10" width="705" height="100" as="geometry" />
        </mxCell>
        <mxCell id="UM2-NUZnYqFaFZItg_hs-1" value="TCP server&lt;div&gt;1. Creates a session for two clients&lt;/div&gt;&lt;div&gt;2. Sends &quot;match found&quot; message to the two clients&lt;/div&gt;&lt;div&gt;3. Manages a session for the two clients until match is over.&lt;/div&gt;&lt;div&gt;4. Closes TCP connections and close session&lt;/div&gt;" style="sketch=0;outlineConnect=0;fontColor=#232F3E;gradientColor=none;fillColor=#232F3D;strokeColor=none;dashed=0;verticalLabelPosition=bottom;verticalAlign=top;align=center;html=1;fontSize=12;fontStyle=0;aspect=fixed;pointerEvents=1;shape=mxgraph.aws4.traditional_server;" parent="Ft3LX77Qiu8mn2sCMVQa-9" vertex="1">
          <mxGeometry y="14" width="45" height="78" as="geometry" />
        </mxCell>
        <mxCell id="UM2-NUZnYqFaFZItg_hs-7" value="" style="edgeStyle=orthogonalEdgeStyle;rounded=0;orthogonalLoop=1;jettySize=auto;html=1;startArrow=classic;startFill=1;" parent="Ft3LX77Qiu8mn2sCMVQa-9" source="UM2-NUZnYqFaFZItg_hs-2" target="UM2-NUZnYqFaFZItg_hs-1" edge="1">
          <mxGeometry relative="1" as="geometry">
            <mxPoint x="87.41264427097849" y="167" as="targetPoint" />
          </mxGeometry>
        </mxCell>
        <mxCell id="UM2-NUZnYqFaFZItg_hs-19" value="TCP" style="edgeLabel;html=1;align=center;verticalAlign=middle;resizable=0;points=[];" parent="UM2-NUZnYqFaFZItg_hs-7" vertex="1" connectable="0">
          <mxGeometry x="-0.4847" relative="1" as="geometry">
            <mxPoint x="14" as="offset" />
          </mxGeometry>
        </mxCell>
        <mxCell id="UM2-NUZnYqFaFZItg_hs-15" value="" style="edgeStyle=orthogonalEdgeStyle;rounded=0;orthogonalLoop=1;jettySize=auto;html=1;startArrow=classic;startFill=1;" parent="Ft3LX77Qiu8mn2sCMVQa-9" source="UM2-NUZnYqFaFZItg_hs-2" target="UM2-NUZnYqFaFZItg_hs-8" edge="1">
          <mxGeometry relative="1" as="geometry">
            <mxPoint x="487.4126442709785" y="87" as="targetPoint" />
          </mxGeometry>
        </mxCell>
        <mxCell id="UM2-NUZnYqFaFZItg_hs-17" value="UDP" style="edgeLabel;html=1;align=center;verticalAlign=middle;resizable=0;points=[];" parent="UM2-NUZnYqFaFZItg_hs-15" vertex="1" connectable="0">
          <mxGeometry x="-0.4573" y="-3" relative="1" as="geometry">
            <mxPoint x="-17" y="-3" as="offset" />
          </mxGeometry>
        </mxCell>
        <mxCell id="UM2-NUZnYqFaFZItg_hs-2" value="1. Connects to TCP server&lt;div&gt;2. Receives &quot;match found&quot; message from TCP server&lt;/div&gt;&lt;div&gt;3. Connects to UDP server&lt;/div&gt;&lt;div&gt;4. Runs game main loop&lt;/div&gt;&lt;div&gt;5. Closes UDP connection&lt;/div&gt;&lt;div&gt;6. Closes TCP connection&lt;/div&gt;" style="sketch=0;outlineConnect=0;fontColor=#232F3E;gradientColor=none;fillColor=#232F3D;strokeColor=none;dashed=0;verticalLabelPosition=bottom;verticalAlign=top;align=center;html=1;fontSize=12;fontStyle=0;aspect=fixed;pointerEvents=1;shape=mxgraph.aws4.client;" parent="Ft3LX77Qiu8mn2sCMVQa-9" vertex="1">
          <mxGeometry x="320" y="54" width="47.21" height="46" as="geometry" />
        </mxCell>
        <mxCell id="UM2-NUZnYqFaFZItg_hs-5" value="" style="edgeStyle=orthogonalEdgeStyle;rounded=0;orthogonalLoop=1;jettySize=auto;html=1;startArrow=classic;startFill=1;" parent="Ft3LX77Qiu8mn2sCMVQa-9" source="UM2-NUZnYqFaFZItg_hs-3" target="UM2-NUZnYqFaFZItg_hs-1" edge="1">
          <mxGeometry relative="1" as="geometry">
            <mxPoint x="280" y="54" as="targetPoint" />
          </mxGeometry>
        </mxCell>
        <mxCell id="UM2-NUZnYqFaFZItg_hs-18" value="TCP" style="edgeLabel;html=1;align=center;verticalAlign=middle;resizable=0;points=[];" parent="UM2-NUZnYqFaFZItg_hs-5" vertex="1" connectable="0">
          <mxGeometry x="-0.5747" relative="1" as="geometry">
            <mxPoint as="offset" />
          </mxGeometry>
        </mxCell>
        <mxCell id="UM2-NUZnYqFaFZItg_hs-20" value="Step 1" style="edgeLabel;html=1;align=center;verticalAlign=middle;resizable=0;points=[];fontSize=18;labelBorderColor=default;textShadow=1;" parent="UM2-NUZnYqFaFZItg_hs-5" vertex="1" connectable="0">
          <mxGeometry x="0.427" y="-2" relative="1" as="geometry">
            <mxPoint x="-41" y="3" as="offset" />
          </mxGeometry>
        </mxCell>
        <mxCell id="UM2-NUZnYqFaFZItg_hs-30" value="Step 3" style="edgeLabel;html=1;align=center;verticalAlign=middle;resizable=0;points=[];fontSize=18;textShadow=1;labelBorderColor=default;" parent="UM2-NUZnYqFaFZItg_hs-5" vertex="1" connectable="0">
          <mxGeometry x="0.2287" y="1" relative="1" as="geometry">
            <mxPoint x="-12" as="offset" />
          </mxGeometry>
        </mxCell>
        <mxCell id="UM2-NUZnYqFaFZItg_hs-13" value="" style="edgeStyle=orthogonalEdgeStyle;rounded=0;orthogonalLoop=1;jettySize=auto;html=1;startArrow=classic;startFill=1;" parent="Ft3LX77Qiu8mn2sCMVQa-9" source="UM2-NUZnYqFaFZItg_hs-3" target="UM2-NUZnYqFaFZItg_hs-8" edge="1">
          <mxGeometry relative="1" as="geometry">
            <mxPoint x="487.4126442709785" y="27" as="targetPoint" />
          </mxGeometry>
        </mxCell>
        <mxCell id="UM2-NUZnYqFaFZItg_hs-16" value="UDP" style="edgeLabel;html=1;align=center;verticalAlign=middle;resizable=0;points=[];" parent="UM2-NUZnYqFaFZItg_hs-13" vertex="1" connectable="0">
          <mxGeometry x="-0.566" y="-2" relative="1" as="geometry">
            <mxPoint y="-2" as="offset" />
          </mxGeometry>
        </mxCell>
        <mxCell id="UM2-NUZnYqFaFZItg_hs-22" value="Step 2" style="edgeLabel;html=1;align=center;verticalAlign=middle;resizable=0;points=[];fontSize=18;labelBorderColor=default;textShadow=1;" parent="UM2-NUZnYqFaFZItg_hs-13" vertex="1" connectable="0">
          <mxGeometry x="0.5169" y="1" relative="1" as="geometry">
            <mxPoint as="offset" />
          </mxGeometry>
        </mxCell>
        <mxCell id="UM2-NUZnYqFaFZItg_hs-3" value="" style="sketch=0;outlineConnect=0;fontColor=#232F3E;gradientColor=none;fillColor=#232F3D;strokeColor=none;dashed=0;verticalLabelPosition=bottom;verticalAlign=top;align=center;html=1;fontSize=12;fontStyle=0;aspect=fixed;pointerEvents=1;shape=mxgraph.aws4.client;" parent="Ft3LX77Qiu8mn2sCMVQa-9" vertex="1">
          <mxGeometry x="320" width="47.21" height="46" as="geometry" />
        </mxCell>
        <mxCell id="UM2-NUZnYqFaFZItg_hs-8" value="UDP server&lt;div&gt;1. Creates a session based on session ID in the UDP message&lt;/div&gt;&lt;div&gt;2. Stores and updates game state information for two players of the same session&lt;/div&gt;&lt;div&gt;3. Checks for &quot;match over&quot; state (win/lose/draw state, player disconnected)&lt;/div&gt;&lt;div&gt;4. Sends &quot;match over&quot; message to clients&lt;/div&gt;" style="sketch=0;outlineConnect=0;fontColor=#232F3E;gradientColor=none;fillColor=#232F3D;strokeColor=none;dashed=0;verticalLabelPosition=bottom;verticalAlign=top;align=center;html=1;fontSize=12;fontStyle=0;aspect=fixed;pointerEvents=1;shape=mxgraph.aws4.traditional_server;" parent="Ft3LX77Qiu8mn2sCMVQa-9" vertex="1">
          <mxGeometry x="660" y="14" width="45" height="78" as="geometry" />
        </mxCell>
        <mxCell id="Ft3LX77Qiu8mn2sCMVQa-13" value="" style="group" vertex="1" connectable="0" parent="1">
          <mxGeometry x="590" y="310" width="493.5" height="470" as="geometry" />
        </mxCell>
        <mxCell id="h-FiXk7vQsGJadyoYlVL-2" value="" style="edgeStyle=orthogonalEdgeStyle;rounded=0;orthogonalLoop=1;jettySize=auto;html=1;" parent="Ft3LX77Qiu8mn2sCMVQa-13" source="h-FiXk7vQsGJadyoYlVL-24" target="h-FiXk7vQsGJadyoYlVL-8" edge="1">
          <mxGeometry relative="1" as="geometry">
            <mxPoint x="91.57000000000016" y="398.5" as="targetPoint" />
          </mxGeometry>
        </mxCell>
        <mxCell id="h-FiXk7vQsGJadyoYlVL-3" value="" style="edgeStyle=orthogonalEdgeStyle;rounded=0;orthogonalLoop=1;jettySize=auto;html=1;" parent="Ft3LX77Qiu8mn2sCMVQa-13" source="h-FiXk7vQsGJadyoYlVL-5" target="h-FiXk7vQsGJadyoYlVL-11" edge="1">
          <mxGeometry relative="1" as="geometry" />
        </mxCell>
        <mxCell id="h-FiXk7vQsGJadyoYlVL-4" value="enqueue incoming message" style="edgeLabel;html=1;align=center;verticalAlign=middle;resizable=0;points=[];" parent="h-FiXk7vQsGJadyoYlVL-3" vertex="1" connectable="0">
          <mxGeometry x="-0.2085" y="3" relative="1" as="geometry">
            <mxPoint x="19" y="3" as="offset" />
          </mxGeometry>
        </mxCell>
        <mxCell id="h-FiXk7vQsGJadyoYlVL-5" value="Receiver&#xa;UDP &#xa;socket" style="rounded=1;arcSize=10;strokeColor=none;fillColor=#DBDBDB;gradientColor=none;" parent="Ft3LX77Qiu8mn2sCMVQa-13" vertex="1">
          <mxGeometry x="59.069999999999936" width="50" height="60" as="geometry" />
        </mxCell>
        <mxCell id="h-FiXk7vQsGJadyoYlVL-6" value="" style="edgeStyle=orthogonalEdgeStyle;rounded=0;orthogonalLoop=1;jettySize=auto;html=1;" parent="Ft3LX77Qiu8mn2sCMVQa-13" source="h-FiXk7vQsGJadyoYlVL-8" target="h-FiXk7vQsGJadyoYlVL-5" edge="1">
          <mxGeometry relative="1" as="geometry" />
        </mxCell>
        <mxCell id="h-FiXk7vQsGJadyoYlVL-7" value="accept client connections" style="edgeLabel;html=1;align=center;verticalAlign=middle;resizable=0;points=[];" parent="h-FiXk7vQsGJadyoYlVL-6" vertex="1" connectable="0">
          <mxGeometry x="-0.0248" y="-1" relative="1" as="geometry">
            <mxPoint y="-1" as="offset" />
          </mxGeometry>
        </mxCell>
        <mxCell id="h-FiXk7vQsGJadyoYlVL-8" value="" style="sketch=0;outlineConnect=0;fontColor=#232F3E;gradientColor=none;fillColor=#232F3D;strokeColor=none;dashed=0;verticalLabelPosition=bottom;verticalAlign=top;align=center;html=1;fontSize=12;fontStyle=0;aspect=fixed;pointerEvents=1;shape=mxgraph.aws4.traditional_server;" parent="Ft3LX77Qiu8mn2sCMVQa-13" vertex="1">
          <mxGeometry x="61.570000000000164" y="120" width="45" height="78" as="geometry" />
        </mxCell>
        <mxCell id="h-FiXk7vQsGJadyoYlVL-9" value="" style="edgeStyle=orthogonalEdgeStyle;rounded=0;orthogonalLoop=1;jettySize=auto;html=1;" parent="Ft3LX77Qiu8mn2sCMVQa-13" source="h-FiXk7vQsGJadyoYlVL-11" target="h-FiXk7vQsGJadyoYlVL-15" edge="1">
          <mxGeometry relative="1" as="geometry" />
        </mxCell>
        <mxCell id="h-FiXk7vQsGJadyoYlVL-10" value="dequeue incoming message" style="edgeLabel;html=1;align=center;verticalAlign=middle;resizable=0;points=[];" parent="h-FiXk7vQsGJadyoYlVL-9" vertex="1" connectable="0">
          <mxGeometry x="-0.1887" relative="1" as="geometry">
            <mxPoint x="-1" as="offset" />
          </mxGeometry>
        </mxCell>
        <mxCell id="h-FiXk7vQsGJadyoYlVL-11" value="blocking queue" style="outlineConnect=0;dashed=0;verticalLabelPosition=middle;verticalAlign=middle;align=left;html=1;shape=mxgraph.aws3.queue;fillColor=#D9A741;gradientColor=none;labelPosition=right;" parent="Ft3LX77Qiu8mn2sCMVQa-13" vertex="1">
          <mxGeometry x="330" y="11" width="97" height="38" as="geometry" />
        </mxCell>
        <mxCell id="h-FiXk7vQsGJadyoYlVL-12" value="" style="edgeStyle=orthogonalEdgeStyle;rounded=0;orthogonalLoop=1;jettySize=auto;html=1;" parent="Ft3LX77Qiu8mn2sCMVQa-13" source="h-FiXk7vQsGJadyoYlVL-13" target="h-FiXk7vQsGJadyoYlVL-8" edge="1">
          <mxGeometry relative="1" as="geometry">
            <mxPoint x="-66.59981182046204" y="408.5" as="targetPoint" />
          </mxGeometry>
        </mxCell>
        <mxCell id="h-FiXk7vQsGJadyoYlVL-13" value="client #1" style="sketch=0;outlineConnect=0;fontColor=#232F3E;gradientColor=none;fillColor=#232F3D;strokeColor=none;dashed=0;verticalLabelPosition=middle;verticalAlign=middle;align=left;html=1;fontSize=12;fontStyle=0;aspect=fixed;pointerEvents=1;shape=mxgraph.aws4.client;labelPosition=right;" parent="Ft3LX77Qiu8mn2sCMVQa-13" vertex="1">
          <mxGeometry x="106.57000000000016" y="245" width="61.57" height="60" as="geometry" />
        </mxCell>
        <mxCell id="h-FiXk7vQsGJadyoYlVL-22" value="" style="edgeStyle=orthogonalEdgeStyle;rounded=0;orthogonalLoop=1;jettySize=auto;html=1;startArrow=none;startFill=0;" parent="Ft3LX77Qiu8mn2sCMVQa-13" source="h-FiXk7vQsGJadyoYlVL-27" target="h-FiXk7vQsGJadyoYlVL-24" edge="1">
          <mxGeometry relative="1" as="geometry">
            <mxPoint x="196.57000000000062" y="570" as="sourcePoint" />
            <mxPoint x="85.55571428571466" y="400" as="targetPoint" />
          </mxGeometry>
        </mxCell>
        <mxCell id="h-FiXk7vQsGJadyoYlVL-23" value="update game state" style="edgeLabel;html=1;align=center;verticalAlign=middle;resizable=0;points=[];" parent="h-FiXk7vQsGJadyoYlVL-22" vertex="1" connectable="0">
          <mxGeometry x="0.6698" y="2" relative="1" as="geometry">
            <mxPoint x="2" y="4" as="offset" />
          </mxGeometry>
        </mxCell>
        <mxCell id="h-FiXk7vQsGJadyoYlVL-24" value="client #2" style="sketch=0;outlineConnect=0;fontColor=#232F3E;gradientColor=none;fillColor=#232F3D;strokeColor=none;dashed=0;verticalLabelPosition=middle;verticalAlign=middle;align=right;html=1;fontSize=12;fontStyle=0;aspect=fixed;pointerEvents=1;shape=mxgraph.aws4.client;labelPosition=left;" parent="Ft3LX77Qiu8mn2sCMVQa-13" vertex="1">
          <mxGeometry y="245" width="61.57" height="60" as="geometry" />
        </mxCell>
        <mxCell id="h-FiXk7vQsGJadyoYlVL-25" value="" style="edgeStyle=orthogonalEdgeStyle;rounded=0;orthogonalLoop=1;jettySize=auto;html=1;startArrow=none;startFill=0;" parent="Ft3LX77Qiu8mn2sCMVQa-13" source="h-FiXk7vQsGJadyoYlVL-27" target="h-FiXk7vQsGJadyoYlVL-13" edge="1">
          <mxGeometry relative="1" as="geometry">
            <mxPoint x="-185.42999999999984" y="470" as="sourcePoint" />
            <mxPoint x="-177.42999999999984" y="399" as="targetPoint" />
          </mxGeometry>
        </mxCell>
        <mxCell id="h-FiXk7vQsGJadyoYlVL-26" value="update game state" style="edgeLabel;html=1;align=center;verticalAlign=middle;resizable=0;points=[];" parent="h-FiXk7vQsGJadyoYlVL-25" vertex="1" connectable="0">
          <mxGeometry x="0.5346" y="1" relative="1" as="geometry">
            <mxPoint x="1" y="-5" as="offset" />
          </mxGeometry>
        </mxCell>
        <mxCell id="h-FiXk7vQsGJadyoYlVL-27" value=" Sender&#xa;UDP&#xa;socket&#xa;(broadcasts&#xa;update&#xa;messages&#xa;to clients)" style="rounded=1;arcSize=10;strokeColor=none;fillColor=#DBDBDB;gradientColor=none;" parent="Ft3LX77Qiu8mn2sCMVQa-13" vertex="1">
          <mxGeometry x="46.57" y="370" width="75" height="110" as="geometry" />
        </mxCell>
        <mxCell id="h-FiXk7vQsGJadyoYlVL-33" value="" style="edgeStyle=orthogonalEdgeStyle;rounded=0;orthogonalLoop=1;jettySize=auto;html=1;entryX=1;entryY=0.5;entryDx=0;entryDy=0;" parent="Ft3LX77Qiu8mn2sCMVQa-13" source="h-FiXk7vQsGJadyoYlVL-29" target="h-FiXk7vQsGJadyoYlVL-27" edge="1">
          <mxGeometry relative="1" as="geometry">
            <mxPoint x="718.5" y="738" as="targetPoint" />
          </mxGeometry>
        </mxCell>
        <mxCell id="h-FiXk7vQsGJadyoYlVL-34" value="dequeue outgoing message" style="edgeLabel;html=1;align=center;verticalAlign=middle;resizable=0;points=[];" parent="h-FiXk7vQsGJadyoYlVL-33" vertex="1" connectable="0">
          <mxGeometry x="0.1853" y="1" relative="1" as="geometry">
            <mxPoint x="20" as="offset" />
          </mxGeometry>
        </mxCell>
        <mxCell id="h-FiXk7vQsGJadyoYlVL-29" value="blocking queue" style="outlineConnect=0;dashed=0;verticalLabelPosition=middle;verticalAlign=middle;align=left;html=1;shape=mxgraph.aws3.queue;fillColor=#D9A741;gradientColor=none;labelPosition=right;" parent="Ft3LX77Qiu8mn2sCMVQa-13" vertex="1">
          <mxGeometry x="327.93000000000006" y="406" width="97" height="38" as="geometry" />
        </mxCell>
        <mxCell id="h-FiXk7vQsGJadyoYlVL-28" value="" style="edgeStyle=orthogonalEdgeStyle;rounded=0;orthogonalLoop=1;jettySize=auto;html=1;" parent="Ft3LX77Qiu8mn2sCMVQa-13" source="h-FiXk7vQsGJadyoYlVL-18" target="h-FiXk7vQsGJadyoYlVL-29" edge="1">
          <mxGeometry relative="1" as="geometry" />
        </mxCell>
        <mxCell id="h-FiXk7vQsGJadyoYlVL-31" value="enqueue outgoing message" style="edgeLabel;html=1;align=center;verticalAlign=middle;resizable=0;points=[];" parent="h-FiXk7vQsGJadyoYlVL-28" vertex="1" connectable="0">
          <mxGeometry x="-0.076" relative="1" as="geometry">
            <mxPoint y="8" as="offset" />
          </mxGeometry>
        </mxCell>
        <mxCell id="Ft3LX77Qiu8mn2sCMVQa-10" value="" style="group" vertex="1" connectable="0" parent="Ft3LX77Qiu8mn2sCMVQa-13">
          <mxGeometry x="263.5" y="120" width="230" height="186" as="geometry" />
        </mxCell>
        <mxCell id="h-FiXk7vQsGJadyoYlVL-15" value="Session manager" style="rounded=1;arcSize=10;strokeColor=none;fillColor=#DBDBDB;gradientColor=none;labelPosition=left;verticalLabelPosition=middle;align=right;verticalAlign=middle;" parent="Ft3LX77Qiu8mn2sCMVQa-10" vertex="1">
          <mxGeometry width="230" height="186" as="geometry" />
        </mxCell>
        <mxCell id="h-FiXk7vQsGJadyoYlVL-16" value="Worker &#xa;thread pool" style="rounded=1;arcSize=10;strokeColor=none;fillColor=#E6E6E6;gradientColor=none;labelPosition=left;verticalLabelPosition=middle;align=right;verticalAlign=middle;" parent="Ft3LX77Qiu8mn2sCMVQa-10" vertex="1">
          <mxGeometry x="66.5" y="85.5" width="136.5" height="90" as="geometry" />
        </mxCell>
        <mxCell id="h-FiXk7vQsGJadyoYlVL-17" value="" style="group" parent="Ft3LX77Qiu8mn2sCMVQa-10" vertex="1" connectable="0">
          <mxGeometry x="42.929999999999836" y="95.5" width="140" height="70" as="geometry" />
        </mxCell>
        <mxCell id="h-FiXk7vQsGJadyoYlVL-18" value="Worker&#xa;thread #1" style="rounded=1;arcSize=10;strokeColor=none;fillColor=#999999;gradientColor=none;labelPosition=right;verticalLabelPosition=middle;align=left;verticalAlign=middle;" parent="h-FiXk7vQsGJadyoYlVL-17" vertex="1">
          <mxGeometry x="55" width="30" height="70" as="geometry" />
        </mxCell>
        <mxCell id="Ft3LX77Qiu8mn2sCMVQa-2" value="Sessions" style="rounded=1;arcSize=10;strokeColor=none;fillColor=#E6E6E6;gradientColor=none;labelPosition=center;verticalLabelPosition=top;align=center;verticalAlign=bottom;" vertex="1" parent="Ft3LX77Qiu8mn2sCMVQa-10">
          <mxGeometry x="66.5" y="20" width="136.5" height="61.5" as="geometry" />
        </mxCell>
        <mxCell id="Ft3LX77Qiu8mn2sCMVQa-3" value="" style="edgeStyle=orthogonalEdgeStyle;rounded=0;orthogonalLoop=1;jettySize=auto;html=1;startArrow=classic;startFill=1;" edge="1" parent="Ft3LX77Qiu8mn2sCMVQa-10" source="h-FiXk7vQsGJadyoYlVL-18" target="Ft3LX77Qiu8mn2sCMVQa-7">
          <mxGeometry relative="1" as="geometry" />
        </mxCell>
        <mxCell id="Ft3LX77Qiu8mn2sCMVQa-7" value="Session #1" style="rounded=1;arcSize=10;strokeColor=none;fillColor=#999999;gradientColor=none;labelPosition=center;verticalLabelPosition=top;align=center;verticalAlign=bottom;" vertex="1" parent="Ft3LX77Qiu8mn2sCMVQa-10">
          <mxGeometry x="86.50000000000023" y="40.75" width="52.86" height="28" as="geometry" />
        </mxCell>
      </root>
    </mxGraphModel>
  </diagram>
</mxfile>
